<svg width="19" height="17" viewBox="0 0 19 17" fill="none" xmlns="http://www.w3.org/2000/svg">
<path d="M12.7316 0.5H13.4191H17.5441H18.2316V1.1875V16.3125V17H17.5441H13.4191H12.7316V16.3125V1.1875V0.5ZM14.1066 1.875V15.625H16.8566V1.875H14.1066ZM0.356618 4.625H1.04412H5.16912H5.85662V5.3125V16.3125V17H5.16912H1.04412H0.356618V16.3125V5.3125V4.625ZM1.73162 6V15.625H4.48162V6H1.73162ZM6.54412 8.75H7.23162H11.3566H12.0441V9.4375V16.3125V17H11.3566H7.23162H6.54412V16.3125V9.4375V8.75ZM7.91912 10.125V15.625H10.6691V10.125H7.91912Z" fill="#202224"/>
</svg>
