<svg width="17" height="16" viewBox="0 0 17 16" fill="none" xmlns="http://www.w3.org/2000/svg">
<path d="M4.34099 0.359375L5.37224 1.39062L2.62224 4.14062L2.10662 4.57031L1.59099 4.14062L0.215993 2.76562L1.24724 1.73438L2.10662 2.63672L4.34099 0.359375ZM7.60662 1.5625H16.5441V2.9375H7.60662V1.5625ZM4.34099 5.85938L5.37224 6.89062L2.62224 9.64062L2.10662 10.0703L1.59099 9.64062L0.215993 8.26562L1.24724 7.23438L2.10662 8.13672L4.34099 5.85938ZM7.60662 7.0625H16.5441V8.4375H7.60662V7.0625ZM4.34099 11.3594L5.37224 12.3906L2.62224 15.1406L2.10662 15.5703L1.59099 15.1406L0.215993 13.7656L1.24724 12.7344L2.10662 13.6367L4.34099 11.3594ZM7.60662 12.5625H16.5441V13.9375H7.60662V12.5625Z" fill="#202224"/>
</svg>
