<svg width="22" height="25" viewBox="0 0 22 25" fill="none" xmlns="http://www.w3.org/2000/svg">
<path d="M3.87224 7.76562C4.67433 6.96354 5.64828 6.5625 6.79412 6.5625C7.93995 6.5625 8.91391 6.96354 9.71599 7.76562C10.5181 8.56771 10.9191 9.54167 10.9191 10.6875C10.9191 12.0911 10.3462 13.2083 9.20037 14.0391C10.2603 14.5547 11.0623 15.2995 11.6066 16.2734C12.1509 15.2995 12.953 14.5547 14.0129 14.0391C12.867 13.2083 12.2941 12.0911 12.2941 10.6875C12.2941 9.54167 12.6952 8.56771 13.4972 7.76562C14.2993 6.96354 15.2733 6.5625 16.4191 6.5625C17.565 6.5625 18.5389 6.96354 19.341 7.76562C20.1431 8.56771 20.5441 9.54167 20.5441 10.6875C20.5441 12.0911 19.9712 13.2083 18.8254 14.0391C19.7707 14.4974 20.5155 15.1706 21.0597 16.0586C21.6327 16.918 21.9191 17.8776 21.9191 18.9375H20.5441C20.5441 17.7917 20.1431 16.8177 19.341 16.0156C18.5389 15.2135 17.565 14.8125 16.4191 14.8125C15.2733 14.8125 14.2993 15.2135 13.4972 16.0156C12.6952 16.8177 12.2941 17.7917 12.2941 18.9375H10.9191C10.9191 17.7917 10.5181 16.8177 9.71599 16.0156C8.91391 15.2135 7.93995 14.8125 6.79412 14.8125C5.64828 14.8125 4.67433 15.2135 3.87224 16.0156C3.07016 16.8177 2.66912 17.7917 2.66912 18.9375H1.29412C1.29412 17.8776 1.56625 16.918 2.11052 16.0586C2.68344 15.1706 3.44256 14.4974 4.38787 14.0391C3.24203 13.2083 2.66912 12.0911 2.66912 10.6875C2.66912 9.54167 3.07016 8.56771 3.87224 7.76562ZM8.72771 8.75391C8.21209 8.20964 7.56756 7.9375 6.79412 7.9375C6.02068 7.9375 5.36183 8.20964 4.81756 8.75391C4.30193 9.26953 4.04412 9.91406 4.04412 10.6875C4.04412 11.4609 4.30193 12.1198 4.81756 12.6641C5.36183 13.1797 6.02068 13.4375 6.79412 13.4375C7.56756 13.4375 8.21209 13.1797 8.72771 12.6641C9.27198 12.1198 9.54412 11.4609 9.54412 10.6875C9.54412 9.91406 9.27198 9.26953 8.72771 8.75391ZM18.3527 8.75391C17.8371 8.20964 17.1926 7.9375 16.4191 7.9375C15.6457 7.9375 14.9868 8.20964 14.4426 8.75391C13.9269 9.26953 13.6691 9.91406 13.6691 10.6875C13.6691 11.4609 13.9269 12.1198 14.4426 12.6641C14.9868 13.1797 15.6457 13.4375 16.4191 13.4375C17.1926 13.4375 17.8371 13.1797 18.3527 12.6641C18.897 12.1198 19.1691 11.4609 19.1691 10.6875C19.1691 9.91406 18.897 9.26953 18.3527 8.75391Z" fill="#202224"/>
</svg>
