<svg width="48" height="48" viewBox="0 0 48 48" fill="none" xmlns="http://www.w3.org/2000/svg">
<rect width="48" height="48" rx="8" fill="#F0F2F5"/>
<g clip-path="url(#clip0_299_2659)">
<path fill-rule="evenodd" clip-rule="evenodd" d="M33 30.75H32.25V15.75C32.25 15.3358 31.9142 15 31.5 15H26.25C25.8358 15 25.5 15.3358 25.5 15.75V19.5H21C20.5858 19.5 20.25 19.8358 20.25 20.25V24H16.5C16.0858 24 15.75 24.3358 15.75 24.75V30.75H15C14.5858 30.75 14.25 31.0858 14.25 31.5C14.25 31.9142 14.5858 32.25 15 32.25H33C33.4142 32.25 33.75 31.9142 33.75 31.5C33.75 31.0858 33.4142 30.75 33 30.75ZM27 16.5H30.75V30.75H27V16.5ZM21.75 21H25.5V30.75H21.75V21ZM17.25 25.5H20.25V30.75H17.25V25.5Z" fill="#121417"/>
</g>
<defs>
<clipPath id="clip0_299_2659">
<rect width="24" height="24" fill="white" transform="translate(12 12)"/>
</clipPath>
</defs>
</svg>
