<svg width="18" height="17" viewBox="0 0 18 17" fill="none" xmlns="http://www.w3.org/2000/svg">
<path d="M10.5 15.5H7.5C4.67175 15.5 3.25725 15.5 2.379 14.621C1.50075 13.742 1.5 12.3282 1.5 9.5V8C1.5 5.17175 1.5 3.75725 2.379 2.879C3.258 2.00075 4.67175 2 7.5 2H10.5C13.3282 2 14.7427 2 15.621 2.879C16.4992 3.758 16.5 5.17175 16.5 8V9.5C16.5 12.3282 16.5 13.7427 15.621 14.621C15.1312 15.1115 14.475 15.3283 13.5 15.4235M5.25 2V0.875M12.75 2V0.875M16.125 5.75H8.0625M1.5 5.75H4.40625" stroke="#A2A2A2" stroke-width="1.5" stroke-linecap="round"/>
<path d="M13 11.75C13 11.8163 12.9737 11.8799 12.9268 11.9268C12.8799 11.9737 12.8163 12 12.75 12C12.6837 12 12.6201 11.9737 12.5732 11.9268C12.5263 11.8799 12.5 11.8163 12.5 11.75C12.5 11.6837 12.5263 11.6201 12.5732 11.5732C12.6201 11.5263 12.6837 11.5 12.75 11.5C12.8163 11.5 12.8799 11.5263 12.9268 11.5732C12.9737 11.6201 13 11.6837 13 11.75ZM13 8.75C13 8.8163 12.9737 8.87989 12.9268 8.92678C12.8799 8.97366 12.8163 9 12.75 9C12.6837 9 12.6201 8.97366 12.5732 8.92678C12.5263 8.87989 12.5 8.8163 12.5 8.75C12.5 8.6837 12.5263 8.62011 12.5732 8.57322C12.6201 8.52634 12.6837 8.5 12.75 8.5C12.8163 8.5 12.8799 8.52634 12.9268 8.57322C12.9737 8.62011 13 8.6837 13 8.75ZM9.25 11.75C9.25 11.8163 9.22366 11.8799 9.17678 11.9268C9.12989 11.9737 9.06631 12 9 12C8.93369 12 8.87011 11.9737 8.82322 11.9268C8.77634 11.8799 8.75 11.8163 8.75 11.75C8.75 11.6837 8.77634 11.6201 8.82322 11.5732C8.87011 11.5263 8.93369 11.5 9 11.5C9.06631 11.5 9.12989 11.5263 9.17678 11.5732C9.22366 11.6201 9.25 11.6837 9.25 11.75ZM9.25 8.75C9.25 8.8163 9.22366 8.87989 9.17678 8.92678C9.12989 8.97366 9.0663 9 9 9C8.9337 9 8.87011 8.97366 8.82322 8.92678C8.77634 8.87989 8.75 8.8163 8.75 8.75C8.75 8.6837 8.77634 8.62011 8.82322 8.57322C8.87011 8.52634 8.9337 8.5 9 8.5C9.0663 8.5 9.12989 8.52634 9.17678 8.57322C9.22366 8.62011 9.25 8.6837 9.25 8.75ZM5.5 11.75C5.5 11.8163 5.47366 11.8799 5.42678 11.9268C5.37989 11.9737 5.3163 12 5.25 12C5.1837 12 5.12011 11.9737 5.07322 11.9268C5.02634 11.8799 5 11.8163 5 11.75C5 11.6837 5.02634 11.6201 5.07322 11.5732C5.12011 11.5263 5.1837 11.5 5.25 11.5C5.3163 11.5 5.37989 11.5263 5.42678 11.5732C5.47366 11.6201 5.5 11.6837 5.5 11.75ZM5.5 8.75C5.5 8.8163 5.47366 8.87989 5.42678 8.92678C5.37989 8.97366 5.3163 9 5.25 9C5.1837 9 5.12011 8.97366 5.07322 8.92678C5.02634 8.87989 5 8.8163 5 8.75C5 8.6837 5.02634 8.62011 5.07322 8.57322C5.12011 8.52634 5.1837 8.5 5.25 8.5C5.3163 8.5 5.37989 8.52634 5.42678 8.57322C5.47366 8.62011 5.5 8.6837 5.5 8.75Z" fill="#F6F4F4" stroke="#A2A2A2"/>
</svg>
